<?xml version="1.0" encoding="utf-8"?>
<!-- Generator: Adobe Illustrator 27.4.0, SVG Export Plug-In . SVG Version: 6.00 Build 0)  -->
<svg version="1.1" id="Camada_2" xmlns="http://www.w3.org/2000/svg" xmlns:xlink="http://www.w3.org/1999/xlink" x="0px" y="0px"
	 viewBox="0 0 1366 768" style="enable-background:new 0 0 1366 768;" xml:space="preserve">
<g>
	<g>
		<g>
			<path d="M348.3,728.1c0,5.5-3.4,10-7.4,10c-4,0-11.6,0-16.7,0s-9.3-4.5-9.3-10l3.2-534c0-5.5-3.6-7.4-8.2-4.3l-73.7,50.9
				c-4.5,3.1-6.5,1.5-4.3-3.5L327.6,9.7c2.1-5.1,5.6-5.1,7.8,0l95.8,227.4c2.1,5.1,0.3,6.5-4.1,3.2l-67-50c-4.4-3.3-8-1.5-8.1,4
				L348.3,728.1z"/>
		</g>
	</g>
</g>
<g>
	<g>
		<g>
			<path d="M104,603.3c-5.5,0-10-3.4-10-7.4c0-4,0-11.6,0-16.7s4.5-9.3,10-9.3l535.1,3.2c5.5,0,7.4-3.6,4.3-8.2l-51-73.7
				c-3.1-4.5-1.5-6.5,3.5-4.3l227.9,95.8c5.1,2.1,5.1,5.6,0,7.7l-227.9,95.8c-5.1,2.1-6.5,0.3-3.2-4.1l50.1-67c3.3-4.4,1.5-8-4-8.1
				L104,603.3z"/>
		</g>
	</g>
</g>
</svg>
