<?xml version="1.0" encoding="utf-8"?>
<!-- Generator: Adobe Illustrator 27.4.0, SVG Export Plug-In . SVG Version: 6.00 Build 0)  -->
<svg version="1.1" id="Camada_1" xmlns="http://www.w3.org/2000/svg" xmlns:xlink="http://www.w3.org/1999/xlink" x="0px" y="0px"
	 viewBox="0 0 16 16" style="enable-background:new 0 0 16 16;" xml:space="preserve">
<style type="text/css">
	.st0{fill:#020203;}
</style>
<g>
	<g>
		<g>
			<path class="st0" d="M5.8,13c0,0.5-0.1,1-0.1,1s-0.2,0-0.3,0c-0.1,0-0.2-0.4-0.2-1l0.1-8.3c0-0.5-0.4-0.7-0.8-0.4l-0.1,0
				C3.9,4.7,3.7,4.5,3.9,4l1.2-2.7c0.2-0.5,0.6-0.5,0.8,0L7.1,4c0.2,0.5,0,0.6-0.4,0.3C6.3,4,5.9,4.2,5.9,4.7L5.8,13z"/>
		</g>
	</g>
</g>
<g>
	<g>
		<g>
			<path class="st0" d="M2,11.8c-0.6,0-1-0.1-1-0.1c0-0.1,0-0.2,0-0.3c0-0.1,0.5-0.2,1-0.2l8.8,0.1c0.6,0,0.8-0.4,0.4-0.8l0-0.1
				c-0.3-0.5-0.2-0.7,0.4-0.5l3,1.2c0.5,0.2,0.5,0.5,0,0.7l-3,1.2c-0.5,0.2-0.7,0-0.3-0.4c0.3-0.4,0.1-0.8-0.4-0.8L2,11.8z"/>
		</g>
	</g>
</g>
</svg>
